<svg width="120" height="120" viewBox="0 0 120 120" fill="none" xmlns="http://www.w3.org/2000/svg">
<rect width="120" height="120" rx="10" fill="#FFFFFF"/>
<path d="M31.506 80.0843L27.2217 73.8669V57.6452V41.4236H39.1929L41.2277 45.0409H31.506V47.6409H42.3581L44.732 51.7105H31.506V80.0843Z" fill="black"/>
<path d="M33.3667 80.7041V53.5737H50.3232L48.6275 57.6433H37.8884V59.9042H47.8362L46.3666 63.9737H37.8884V77.765L33.3667 80.7041Z" fill="black"/>
<path fill-rule="evenodd" clip-rule="evenodd" d="M10.2717 50.2142L21.463 39.136L25.6456 41.3968V61.6315L21.463 58.5794V54.3968L15.6978 51.1185L13.3239 53.6055L10.2717 50.2142ZM21.3499 45.862V50.3838L17.9586 48.6881L21.3499 45.862Z" fill="black"/>
<path d="M65.2064 47.248H63.6485L63.242 46.1545H60.4743L60.0678 47.248H58.5098L60.9969 40.7932H62.7194L65.2064 47.248ZM62.8646 44.9448L61.8582 42.1674L60.8517 44.9448H62.8646ZM67.1769 47.248H65.8027V40.7932H70.3704V42.0029H67.1769V43.3577H70.3027V44.5674H67.1769V47.248ZM76.5667 47.248H74.9796L73.7118 44.9545H72.7054V47.248H71.3312V40.7932H74.3505C75.015 40.7932 75.5441 40.9868 75.9376 41.3739C76.3312 41.761 76.5279 42.261 76.5279 42.8739C76.5279 43.4029 76.386 43.8319 76.1021 44.1609C75.8247 44.49 75.4925 44.6997 75.1054 44.79L76.5667 47.248ZM74.157 43.7448C74.4344 43.7448 74.6634 43.6674 74.8441 43.5126C75.0247 43.3513 75.115 43.1352 75.115 42.8642C75.115 42.6061 75.0247 42.3997 74.8441 42.2448C74.6634 42.0835 74.4344 42.0029 74.157 42.0029H72.7054V43.7448H74.157ZM78.9236 47.248H77.5494V40.7932H78.9236V47.248ZM83.3408 47.3642C82.3538 47.3642 81.5312 47.0545 80.8731 46.4351C80.2215 45.8093 79.8957 45.0061 79.8957 44.0255C79.8957 43.0384 80.2215 42.2352 80.8731 41.6158C81.5312 40.9964 82.3538 40.6868 83.3408 40.6868C84.5473 40.6868 85.4441 41.2126 86.0312 42.2642L84.8505 42.8448C84.7086 42.5739 84.4989 42.3513 84.2215 42.1771C83.9505 41.9964 83.657 41.9061 83.3408 41.9061C82.7537 41.9061 82.2667 42.1061 81.8796 42.5061C81.4989 42.9061 81.3086 43.4126 81.3086 44.0255C81.3086 44.6384 81.4989 45.1448 81.8796 45.5448C82.2667 45.9448 82.7537 46.1448 83.3408 46.1448C83.657 46.1448 83.9505 46.0577 84.2215 45.8835C84.4989 45.7029 84.7086 45.4771 84.8505 45.2061L86.0312 45.7771C85.4312 46.8351 84.5344 47.3642 83.3408 47.3642ZM92.8021 47.248H91.2441L90.8376 46.1545H88.0699L87.6634 47.248H86.1054L88.5925 40.7932H90.315L92.8021 47.248ZM90.4602 44.9448L89.4537 42.1674L88.4473 44.9448H90.4602Z" fill="black"/>
<path d="M60.5614 62.1189H59.1873V55.6641H63.755V56.8737H60.5614V58.2286H63.6873V59.4383H60.5614V62.1189ZM66.0898 62.1189H64.7156V55.6641H66.0898V62.1189ZM73.149 62.1189H71.8232L68.7457 57.9092V62.1189H67.3716V55.6641H68.7845L71.7748 59.7189V55.6641H73.149V62.1189ZM77.2957 62.1189H75.9119V56.8737H74.0248V55.6641H79.1732V56.8737H77.2957V62.1189ZM84.6221 62.1189H80.0543V55.6641H84.6221V56.8737H81.4285V58.2286H84.5544V59.4383H81.4285V60.9092H84.6221V62.1189ZM88.8318 62.235C87.8447 62.235 87.0221 61.9254 86.364 61.306C85.7124 60.6802 85.3866 59.877 85.3866 58.8963C85.3866 57.9092 85.7124 57.106 86.364 56.4866C87.0221 55.8673 87.8447 55.5576 88.8318 55.5576C90.0382 55.5576 90.935 56.0834 91.5221 57.135L90.3414 57.7157C90.1995 57.4447 89.9898 57.2221 89.7124 57.0479C89.4414 56.8673 89.1479 56.777 88.8318 56.777C88.2447 56.777 87.7576 56.977 87.3705 57.377C86.9898 57.777 86.7995 58.2834 86.7995 58.8963C86.7995 59.5092 86.9898 60.0157 87.3705 60.4157C87.7576 60.8157 88.2447 61.0157 88.8318 61.0157C89.1479 61.0157 89.4414 60.9286 89.7124 60.7544C89.9898 60.5737 90.1995 60.3479 90.3414 60.077L91.5221 60.6479C90.9221 61.706 90.0253 62.235 88.8318 62.235ZM98.1463 62.1189H96.7624V59.3996H93.714V62.1189H92.3398V55.6641H93.714V58.1996H96.7624V55.6641H98.1463V62.1189Z" fill="black"/>
<path d="M60.5614 76.9895H59.1873V70.5347H63.755V71.7444H60.5614V73.0992H63.6873V74.3089H60.5614V76.9895ZM67.7834 77.1056C66.8027 77.1056 65.9931 76.7927 65.3544 76.1669C64.7221 75.5411 64.406 74.7411 64.406 73.7669C64.406 72.7927 64.7221 71.9927 65.3544 71.3669C65.9931 70.7411 66.8027 70.4282 67.7834 70.4282C68.7576 70.4282 69.5608 70.7444 70.1931 71.3766C70.8318 72.0024 71.1511 72.7992 71.1511 73.7669C71.1511 74.7347 70.8318 75.5347 70.1931 76.1669C69.5608 76.7927 68.7576 77.1056 67.7834 77.1056ZM66.3608 75.2863C66.7221 75.6863 67.1963 75.8863 67.7834 75.8863C68.3705 75.8863 68.8415 75.6863 69.1963 75.2863C69.5576 74.8863 69.7382 74.3798 69.7382 73.7669C69.7382 73.154 69.5576 72.6476 69.1963 72.2476C68.8415 71.8476 68.3705 71.6476 67.7834 71.6476C67.1898 71.6476 66.7124 71.8476 66.3511 72.2476C65.9963 72.6476 65.8189 73.154 65.8189 73.7669C65.8189 74.3798 65.9995 74.8863 66.3608 75.2863ZM77.1963 76.3798C76.706 76.8637 75.9834 77.1056 75.0286 77.1056C74.0737 77.1056 73.3479 76.8637 72.8511 76.3798C72.3608 75.8895 72.1156 75.2314 72.1156 74.4056V70.5347H73.5092V74.3669C73.5092 74.8315 73.6415 75.2024 73.906 75.4798C74.1705 75.7508 74.5447 75.8863 75.0286 75.8863C75.5124 75.8863 75.8834 75.7508 76.1415 75.4798C76.406 75.2024 76.5382 74.8315 76.5382 74.3669V70.5347H77.9415V74.4056C77.9415 75.2314 77.6931 75.8895 77.1963 76.3798ZM85.0001 76.9895H83.6742L80.5968 72.7798V76.9895H79.2226V70.5347H80.6355L83.6259 74.5895V70.5347H85.0001V76.9895ZM88.8275 76.9895H86.2726V70.5347H88.8178C89.8307 70.5347 90.6533 70.8314 91.2855 71.425C91.9242 72.0185 92.2436 72.796 92.2436 73.7573C92.2436 74.7314 91.9275 75.5153 91.2952 76.1089C90.663 76.696 89.8404 76.9895 88.8275 76.9895ZM88.8178 75.7798C89.4372 75.7798 89.9275 75.5863 90.2888 75.1992C90.6565 74.8121 90.8404 74.3314 90.8404 73.7573C90.8404 73.1702 90.663 72.6895 90.3081 72.3153C89.9597 71.9347 89.4662 71.7444 88.8275 71.7444H87.6468V75.7798H88.8178ZM98.4544 76.9895H96.8673L95.5995 74.696H94.5931V76.9895H93.2189V70.5347H96.2382C96.9027 70.5347 97.4318 70.7282 97.8253 71.1153C98.2189 71.5024 98.4157 72.0024 98.4157 72.6153C98.4157 73.1444 98.2737 73.5734 97.9898 73.9024C97.7124 74.2314 97.3802 74.4411 96.9931 74.5315L98.4544 76.9895ZM96.0447 73.4863C96.3221 73.4863 96.5511 73.4089 96.7318 73.254C96.9124 73.0927 97.0027 72.8766 97.0027 72.6056C97.0027 72.3476 96.9124 72.1411 96.7318 71.9863C96.5511 71.825 96.3221 71.7444 96.0447 71.7444H94.5931V73.4863H96.0447ZM102.441 76.9895H101.067V74.3476L98.5898 70.5347H100.158L101.754 73.1185L103.351 70.5347H104.909L102.441 74.3476V76.9895Z" fill="black"/>
</svg>
