<svg width="120" height="120" viewBox="0 0 120 120" fill="none" xmlns="http://www.w3.org/2000/svg">
<rect width="120" height="120" rx="10" fill="#FFFFFF"/>
<g clip-path="url(#clip0)">
<path d="M20.8328 45.5C18.5903 45.5009 16.3817 46.0405 14.3969 47.0725C12.4122 48.1045 10.711 49.5979 9.43968 51.4242C8.16837 53.2504 7.36508 55.3548 7.09898 57.5561C6.83289 59.7573 7.11196 61.9895 7.91217 64.0605C8.71237 66.1315 10.0097 67.9792 11.6926 69.4445C13.3754 70.9098 15.3932 71.9488 17.5724 72.472C19.7515 72.9953 22.0266 72.9871 24.2019 72.4482C26.3771 71.9092 28.3872 70.8557 30.0592 69.3784C28.4191 70.4664 26.4892 71.0487 24.514 71.0517C21.217 71.0517 18.2679 69.4348 16.2845 66.8838C14.7529 65.1026 13.7612 62.4643 13.6937 59.5026V58.8559C13.7612 55.8942 14.7529 53.2559 16.2793 51.4696C18.2679 48.9237 21.217 47.3119 24.514 47.3119C26.5389 47.3119 28.4393 47.9176 30.0592 48.9853C27.6189 46.8294 24.4102 45.5154 20.8899 45.5H20.838H20.8328Z" fill="url(#paint0_linear)"/>
<path d="M16.2783 51.4697C17.5504 49.9914 19.1859 49.0983 20.9824 49.0983C25.0114 49.0983 28.2773 53.6153 28.2773 59.1793C28.2773 64.7486 25.0114 69.2604 20.9824 69.2604C19.1911 69.2604 17.5556 68.3673 16.2835 66.889C18.2669 69.4349 21.216 71.0518 24.513 71.0518C26.5379 71.0518 28.4382 70.441 30.0582 69.3785C31.5116 68.0964 32.6742 66.5248 33.4697 64.7671C34.2652 63.0093 34.6756 61.105 34.674 59.1793C34.674 55.1243 32.8931 51.4851 30.0634 48.9802C28.4235 47.8917 26.4935 47.3092 24.5182 47.3069C21.2212 47.3069 18.2721 48.9238 16.2887 51.4748" fill="url(#paint1_linear)"/>
<path d="M49.3209 47.9895C44.2949 47.9895 40.2087 52.2242 40.2087 57.4341C40.2087 62.6389 44.2949 66.8787 49.3209 66.8787C54.3469 66.8787 58.433 62.6389 58.433 57.4341C58.433 52.2242 54.3469 47.9895 49.3209 47.9895ZM49.3209 49.4062C53.5577 49.4011 57 53.0044 57 57.4341C57 61.8587 53.5577 65.4569 49.3209 65.4569C45.0893 65.4569 41.6418 61.8587 41.6418 57.4341C41.6418 53.0044 45.0841 49.4062 49.3209 49.4062ZM66.0706 52.9736C64.1807 52.9736 62.5556 53.8564 61.4497 55.2475V53.2867H59.9439V70.3691H61.4497V64.2455C61.9903 64.9512 62.6888 65.5237 63.4904 65.9181C64.2921 66.3126 65.1752 66.5184 66.0706 66.5194C69.5753 66.5194 72.431 63.4807 72.431 59.7439C72.431 56.0123 69.5753 52.9736 66.0706 52.9736ZM100.863 52.9736C97.3583 52.9736 94.5026 56.0123 94.5026 59.749C94.5026 63.4807 97.3583 66.5245 100.863 66.5245C102.753 66.5245 104.378 65.6365 105.484 64.2455V66.1652H106.99V53.2815H105.484V55.2526C104.944 54.5466 104.245 53.9739 103.443 53.5794C102.642 53.1849 101.759 52.9793 100.863 52.9787V52.9736ZM80.1464 52.9992C76.6314 52.9992 73.7809 56.0328 73.7809 59.7696C73.7809 63.5012 76.6366 66.5348 80.1413 66.5348C82.649 66.5348 84.8297 64.9846 85.863 62.7313L84.5649 61.9819C83.7965 63.7989 82.1039 65.0616 80.1464 65.0616C77.6023 65.0616 75.5099 62.9417 75.2918 60.2367H86.4912C86.5016 60.0827 86.5068 59.9287 86.5068 59.7644C86.5068 55.7762 83.89 52.989 80.1464 52.989L80.1361 52.9992H80.1464ZM93.4694 53.03C92.9502 53.0506 92.4621 53.184 92.0052 53.4304C91.0719 53.9224 90.3439 54.7239 89.9491 55.694C89.944 55.7197 89.9284 55.7454 89.918 55.7608H89.9024V53.3688H88.3967V66.1755H89.9024V66.0831V59.4616C89.8857 58.6173 90.0448 57.7787 90.3697 56.9978C90.642 56.3082 91.0762 55.6924 91.6366 55.2013C91.9515 54.9167 92.3281 54.7072 92.7376 54.5888C93.1471 54.4705 93.5786 54.4465 93.999 54.5186L94.4403 54.6007C94.5234 54.1747 94.7311 53.6357 94.8193 53.2097C94.404 53.0916 93.8536 53.0249 93.4642 53.0403L93.4694 53.03ZM66.0654 54.4467C68.755 54.4467 70.9408 56.8284 70.9408 59.749C70.9408 62.6748 68.7498 65.0462 66.0603 65.0462C63.3707 65.0462 61.1901 62.6697 61.1901 59.749C61.1901 56.8233 63.3759 54.4467 66.0654 54.4467ZM100.863 54.4467C103.552 54.4467 105.738 56.8284 105.738 59.749C105.738 62.6748 103.547 65.0462 100.858 65.0462C98.1683 65.0462 95.9824 62.6697 95.9824 59.749C95.9824 56.8233 98.1735 54.4467 100.863 54.4467ZM80.1361 54.4673C82.7944 54.4673 84.6532 56.2381 84.9647 58.9483H75.323C75.6864 56.4178 77.7062 54.4673 80.1361 54.4673Z" fill="black"/>
</g>
<defs>
<linearGradient id="paint0_linear" x1="18.5275" y1="45.9466" x2="18.5275" y2="72.4581" gradientUnits="userSpaceOnUse">
<stop stop-color="#D9A7AB"/>
<stop offset="0.3" stop-color="#FF1B2D"/>
<stop offset="0.6" stop-color="#FF1B2D"/>
<stop offset="1" stop-color="#A70014"/>
</linearGradient>
<linearGradient id="paint1_linear" x1="25.4787" y1="47.5071" x2="25.4787" y2="70.9594" gradientUnits="userSpaceOnUse">
<stop stop-color="#9C0000"/>
<stop offset="0.7" stop-color="#FF4B4B"/>
<stop offset="1" stop-color="#FF4B4B"/>
</linearGradient>
<clipPath id="clip0">
<rect width="100" height="27.3585" fill="white" transform="translate(7 45.5)"/>
</clipPath>
</defs>
</svg>
