<svg width="120" height="120" viewBox="0 0 120 120" fill="none" xmlns="http://www.w3.org/2000/svg">
<rect width="120" height="120" rx="10" fill="#FFFFFF" fill-opacity="0.46"/>
<path d="M26.7139 93.7498V26.3398H93.3749V79.1698L93.1079 79.4668C89.7615 82.8598 86.4062 86.2438 83.0509 89.6278C81.6892 91.0048 80.3275 92.3728 78.9569 93.7498H26.7139ZM70.5998 52.3138H73.0117C73.7059 52.3138 73.9017 52.5028 73.9106 53.2228C73.9106 54.4198 73.9017 55.6258 73.9017 56.8228C73.9017 57.5248 74.142 57.7948 74.8273 57.7948C77.3371 57.8038 79.838 57.8038 82.3478 57.7948C83.2111 57.7858 83.4069 57.5518 83.4069 56.6788C83.4069 52.8808 83.4158 49.0918 83.4158 45.2938C83.4158 44.2588 83.22 44.0428 82.2054 44.0428C77.9067 44.0338 73.5991 44.0428 69.3004 44.0338C68.7931 44.0338 68.3481 44.1598 67.9654 44.5378C66.0163 46.5088 64.0761 48.4978 62.0914 50.4238C61.326 51.1618 61.0679 52.0078 61.0679 53.0338C61.0768 60.8008 61.0768 68.5678 61.0768 76.3438C61.0768 76.5508 61.0857 76.7668 61.0946 76.9738C61.148 77.6488 61.148 77.6488 61.8333 77.6488C66.399 77.6488 70.9736 77.6398 75.5393 77.6578C76.1 77.6578 76.545 77.4868 76.9366 77.0908C78.8501 75.1648 80.7725 73.2478 82.686 71.3218C83.1221 70.8808 83.3535 70.3498 83.3535 69.7108C83.3624 66.7678 83.3802 63.8338 83.398 60.8908C83.398 60.1528 83.1577 59.9278 82.4279 59.9278C80.6479 59.9278 78.8679 59.9368 77.0879 59.9368C76.3136 59.9368 75.5482 59.9188 74.7739 59.9278C74.1687 59.9278 73.9462 60.1528 73.9017 60.7558C73.8928 60.9178 73.8928 61.0888 73.8928 61.2508C73.8928 64.0678 73.8928 66.8938 73.9017 69.7108V70.1968H70.5909C70.5998 64.2478 70.5998 58.3258 70.5998 52.3138ZM36.762 44.1868V44.6458C36.762 52.5028 36.7709 60.3598 36.7709 68.2168C36.7709 69.3688 37.1091 70.3768 37.8834 71.2138C39.6456 73.1128 41.4345 74.9938 43.2145 76.8838C43.7574 77.4598 44.3893 77.6938 45.1992 77.6938C49.578 77.6668 53.9479 77.6758 58.3267 77.6758C58.9853 77.6758 59.0031 77.6578 59.012 76.9648L59.1188 58.7038C59.1277 57.8038 58.9586 57.6418 58.0508 57.6418C55.6923 57.6328 53.3338 57.6328 50.9753 57.6148C49.7204 57.6058 49.5335 57.7858 49.5424 59.0548C49.5602 62.0428 49.5602 65.0218 49.5691 68.0098C49.5691 68.4508 49.5335 68.8918 49.5157 69.3238H46.3295V54.1588H46.8279C50.4324 54.1498 54.0369 54.1498 57.6414 54.1408C57.7749 54.1408 57.9084 54.1498 58.0419 54.1318C58.5403 54.0688 58.9764 53.7808 58.9764 53.4568C58.9942 51.7378 58.9853 50.0098 58.9853 48.2458C58.7895 48.2278 58.567 48.2008 58.3534 48.2008C55.0426 48.1828 51.7407 48.1738 48.4299 48.1468C48.0116 48.1468 47.6022 48.1288 47.1839 48.0748C46.6054 47.9938 46.3562 47.7688 46.3028 47.1838C46.2316 46.4998 46.2227 45.8068 46.2227 45.1228C46.2138 44.2768 46.0358 44.0698 45.1725 44.0698H37.7855C37.4473 44.0878 37.1269 44.1508 36.762 44.1868Z" fill="#F13204"/>
<path d="M78.9659 93.7501C80.3276 92.3731 81.6982 91.0051 83.0599 89.6281C86.4152 86.2441 89.7616 82.8511 93.1169 79.4671C93.2148 79.3681 93.2949 79.2691 93.3839 79.1701C93.4106 79.1701 93.4373 79.1701 93.4729 79.1611V93.8311H78.9659C78.957 93.8131 78.957 93.7861 78.9659 93.7501Z" fill="#FEFEFE"/>
<path d="M93.464 79.1701C93.4373 79.1701 93.4106 79.1791 93.375 79.1791V47.3011V26.3491C93.4017 26.3671 93.4551 26.3761 93.464 26.3941C93.4729 26.5111 93.464 26.6371 93.464 26.7541V79.1701Z" fill="#F45E3A"/>
<path d="M78.9658 93.75C78.9569 93.777 78.9569 93.804 78.9569 93.84H27.1144C26.9809 93.84 26.8474 93.786 26.7139 93.75H78.9658Z" fill="#F46543"/>
<path d="M70.5999 52.3141V70.1881H73.9107V69.7021C73.9107 66.8851 73.9107 64.0591 73.9018 61.2421C73.9018 61.0801 73.8929 60.9091 73.9107 60.7471C73.9552 60.1441 74.1777 59.9191 74.7829 59.9191C75.5572 59.9191 76.3226 59.9281 77.0969 59.9281C78.8769 59.9281 80.6569 59.9191 82.4369 59.9191C83.1667 59.9191 83.407 60.1441 83.407 60.8821C83.3981 63.8251 83.3714 66.7591 83.3625 69.7021C83.3625 70.3411 83.1311 70.8721 82.695 71.3131C80.7815 73.2391 78.8591 75.1561 76.9456 77.0821C76.554 77.4691 76.109 77.6491 75.5483 77.6491C70.9826 77.6401 66.408 77.6401 61.8423 77.6401C61.157 77.6401 61.157 77.6401 61.1036 76.9651C61.0858 76.7581 61.0858 76.5421 61.0858 76.3351C61.0858 68.5681 61.0947 60.8011 61.0769 53.0251C61.0769 51.9991 61.335 51.1531 62.1004 50.4151C64.0851 48.4801 66.0253 46.5001 67.9744 44.5291C68.3482 44.1511 68.8021 44.0251 69.3094 44.0251C73.6081 44.0251 77.9157 44.0251 82.2144 44.0341C83.229 44.0341 83.4248 44.2591 83.4248 45.2851C83.4248 49.0831 83.4248 52.8721 83.4159 56.6701C83.4159 57.5521 83.2112 57.7861 82.3568 57.7861C79.847 57.8041 77.3461 57.7951 74.8363 57.7861C74.151 57.7861 73.9107 57.5251 73.9107 56.8141C73.9107 55.6171 73.9196 54.4111 73.9196 53.2141C73.9196 52.4941 73.7238 52.3051 73.0207 52.3051C72.2108 52.3141 71.4098 52.3141 70.5999 52.3141ZM36.7621 44.1871C37.1359 44.1511 37.4563 44.0881 37.7767 44.0881C40.242 44.0791 42.6984 44.0791 45.1637 44.0881C46.027 44.0881 46.205 44.2861 46.2139 45.1411C46.2228 45.8251 46.2317 46.5181 46.294 47.2021C46.3563 47.7871 46.5966 48.0121 47.1751 48.0931C47.5845 48.1471 48.0028 48.1651 48.4211 48.1651L58.3446 48.2191C58.5671 48.2191 58.7807 48.2461 58.9765 48.2641C58.9765 50.0281 58.9854 51.7471 58.9676 53.4751C58.9676 53.8081 58.5315 54.0961 58.0331 54.1501C57.8996 54.1681 57.7661 54.1591 57.6326 54.1591C54.0281 54.1681 50.4236 54.1681 46.8191 54.1771H46.3207V69.3421H49.5069C49.5247 68.9101 49.5692 68.4691 49.5603 68.0281C49.5603 65.0401 49.5514 62.0611 49.5336 59.0731C49.5247 57.8041 49.7116 57.6241 50.9665 57.6331C53.325 57.6511 55.6835 57.6511 58.042 57.6601C58.9498 57.6601 59.1189 57.8221 59.11 58.7221L59.0032 76.9832C59.0032 77.6852 58.9765 77.6941 58.3179 77.6941C53.9391 77.6941 49.5692 77.6761 45.1904 77.7121C44.3894 77.7211 43.7486 77.4781 43.2057 76.9021C41.4257 75.0121 39.6368 73.1311 37.8746 71.2321C37.1003 70.3951 36.7621 69.3871 36.7621 68.2351C36.771 60.3781 36.7621 52.5211 36.7532 44.6641C36.7621 44.5201 36.7621 44.3851 36.7621 44.1871Z" fill="white"/>
</svg>
